<svg xmlns="http://www.w3.org/2000/svg" viewBox="0 0 419.83 58.75"><defs><style>.cls-1{fill:#6d6d6d;}.cls-2{opacity:0.9;}</style></defs><g id="Layer_2" data-name="Layer 2"><g id="Designs"><g id="Layer_2-2" data-name="Layer 2"><g id="Layer_3" data-name="Layer 3"><path class="cls-1" d="M60.2,0c0,.48,0,.94-.08,1.39a10.69,10.69,0,0,1-1.46,4.45,11,11,0,0,1-5.46,4.42,16.55,16.55,0,0,1-5.42,1.17c-.82,0-1.64.07-2.47.07H1.16c-.23,0-.34,0-.33-.29A10.57,10.57,0,0,1,3.25,4.45a11.58,11.58,0,0,1,5.09-3.4,16.79,16.79,0,0,1,4.85-1C13.92,0,14.65,0,15.37,0H60.2Z"/><path class="cls-1" d="M39.42,23.91c-.07.69-.1,1.35-.21,2A9.87,9.87,0,0,1,36,32a12.66,12.66,0,0,1-5.13,2.72,18.21,18.21,0,0,1-5.13.71q-12.77,0-25.51,0H0c0-.46,0-.9.08-1.34a10.41,10.41,0,0,1,1.68-4.82,11,11,0,0,1,5.17-4.06,15.93,15.93,0,0,1,5-1.17c.81-.06,1.62-.09,2.43-.1H39.42Z"/><path class="cls-1" d="M0,52.1a6.66,6.66,0,1,1,6.67,6.65A6.66,6.66,0,0,1,0,52.1Z"/></g></g><g id="Layer_2-3" data-name="Layer 2"><g id="Layer_3-2" data-name="Layer 3"><g id="Layer_2-2-2" data-name="Layer 2-2"><g id="Layer_1-2" data-name="Layer 1-2"><g class="cls-2"><path class="cls-1" d="M197.58,26.25l3-6.11h5.1l-5.17,9.12,5.29,9.32h-5.1l-3.09-6.25-3.08,6.25h-5.1l5.3-9.32-5.17-9.12h5.1ZM213.82,32h-2.41v6.52H207V20.14h7.24a7.7,7.7,0,0,1,5.1,1.48,5,5,0,0,1,1.88,4.08,6.07,6.07,0,0,1-.82,3.22A5.68,5.68,0,0,1,218,31l3.83,7.44v.21H217Zm-2.35-3.42h2.82a2.31,2.31,0,0,0,1.88-.68,2.74,2.74,0,0,0,.67-1.87,2.45,2.45,0,0,0-.67-1.88,2.36,2.36,0,0,0-1.87-.67h-2.83Zm16.65,3.68v6.26H223.7V20.14h7.38a8.42,8.42,0,0,1,3.76.82,6.29,6.29,0,0,1,2.54,2.2,5.87,5.87,0,0,1,.87,3.29,5.3,5.3,0,0,1-2,4.29,7.88,7.88,0,0,1-5.3,1.61h-2.88Zm0-3.42H231a2.42,2.42,0,0,0,1.95-.67,2.24,2.24,0,0,0,.67-1.82,3,3,0,0,0-.67-2.08,2.36,2.36,0,0,0-1.88-.81h-2.95Zm22.79,6.31h7.73V38.6h-12.2V20.14h4.43v15Zm20.8-4.43h-7v4.43H273V38.6H260.35V20.14H273.1v3.42h-8.27v3.9h6.92Zm2.82,7.79V20.14h6A9,9,0,0,1,285,21.27a7.59,7.59,0,0,1,3,3.16,9.88,9.88,0,0,1,1.15,4.49v.87a9.5,9.5,0,0,1-1.09,4.56,8.17,8.17,0,0,1-7.38,4.3h-6.15Zm4.43-15v11.6h1.52a3.54,3.54,0,0,0,3-1.34,6.84,6.84,0,0,0,1-4V29a6.62,6.62,0,0,0-1-4,3.6,3.6,0,0,0-3-1.34h-1.49Zm27.19,12.73a7.1,7.1,0,0,1-3,1.81,12.59,12.59,0,0,1-4.34.67A7.63,7.63,0,0,1,293,36.58a9.36,9.36,0,0,1-2.35-6.17V28.79a11.82,11.82,0,0,1,.94-4.76,7.49,7.49,0,0,1,2.75-3.15,7.91,7.91,0,0,1,4.17-1.09,8.23,8.23,0,0,1,5.37,1.61,6.63,6.63,0,0,1,2.21,4.7h-4.3a3.4,3.4,0,0,0-1-2.22,3,3,0,0,0-2.12-.66,3,3,0,0,0-2.61,1.4,7.46,7.46,0,0,0-.94,4.05v1.14A7.78,7.78,0,0,0,296,34a3.26,3.26,0,0,0,2.95,1.4,3.76,3.76,0,0,0,2.62-.81V31.71h-3.09v-3H306v7.64Zm13.76-5.57h-7v4.43h8.24V38.6H308.52V20.14h12.76v3.42H313v3.9h7v3.29ZM329.64,32h-2.42v6.52h-4.48V20.14H330a7.66,7.66,0,0,1,5.1,1.48A5,5,0,0,1,337,25.7a6.06,6.06,0,0,1-.81,3.22A5.68,5.68,0,0,1,333.73,31l3.83,7.44v.21h-4.77Zm-2.42-3.42H330a2.3,2.3,0,0,0,1.88-.67,2.79,2.79,0,0,0,.65-1.87,2.45,2.45,0,0,0-.67-1.88A2.34,2.34,0,0,0,330,23.5h-2.82Z"/><path class="cls-1" d="M118.58,3.65H120V0h-1.42a11.44,11.44,0,0,0-11.46,11.42h0v8.33a6.88,6.88,0,0,1-6.48,6.89l.1,1.82-.1,1.82a6.89,6.89,0,0,1,6.48,6.89v9.57a12,12,0,0,0,12,12V55.1a8.31,8.31,0,0,1-8.3-8.31V37.17a10.53,10.53,0,0,0-4.61-8.7,10.57,10.57,0,0,0,4.62-8.7V11.44A7.83,7.83,0,0,1,118.58,3.65Z"/><path class="cls-1" d="M160.7,3.65h-1.42V0h1.42a11.41,11.41,0,0,1,11.39,11.44h0v8.31a6.9,6.9,0,0,0,6.49,6.89l-.11,1.82.11,1.83a6.89,6.89,0,0,0-6.49,6.88v9.57a12,12,0,0,1-12,12V55.1a8.32,8.32,0,0,0,8.31-8.31V37.17a10.51,10.51,0,0,1,4.61-8.7,10.57,10.57,0,0,1-4.61-8.7V11.44a7.76,7.76,0,0,0-7.72-7.79Z"/><path class="cls-1" d="M152.9,14.68h5.42L147,25.28a11,11,0,0,1-14.79,0L121,14.68h5.41l8.57,8a6.92,6.92,0,0,0,9.36,0Z"/><path class="cls-1" d="M126.32,44.06H120.9l11.34-10.62a10.91,10.91,0,0,1,14.79,0l11.34,10.63H153L144.34,36A6.93,6.93,0,0,0,135,36Z"/></g></g></g></g></g><g id="Layer_2-4" data-name="Layer 2"><g id="Layer_3-3" data-name="Layer 3"><path class="cls-1" d="M378,58.62l.92-1.62,1.58-2.8L381.69,52c.51-.91,1-1.82,1.56-2.75.4-.7.78-1.42,1.18-2.13L386,44.37c.31-.54.6-1.09.9-1.62L388.45,40l.91-1.66c.53-1,1.07-1.9,1.6-2.86.14-.23.25-.47.38-.7a.56.56,0,0,1,.23-.25c0,.19,0,.38-.05.57-.07.56-.16,1.12-.22,1.68-.05.41-.08.82-.13,1.24s-.11.83-.16,1.25-.08.76-.13,1.15-.12.89-.17,1.34-.08.82-.13,1.23-.1.84-.15,1.26-.09.76-.14,1.14-.11.9-.16,1.34-.08.83-.13,1.24-.11.83-.16,1.25-.08.77-.13,1.15-.12.89-.17,1.34-.08.75-.12,1.12-.12.89-.17,1.34-.09.74-.12,1.12a.22.22,0,0,1-.19.23c-.78.22-1.56.46-2.33.69l-3.76,1.12-4.52,1.35-.09,0C378.16,58.68,378,58.85,378,58.62Z"/><path class="cls-1" d="M392.49,31.2c-.5-1.53-1-3-1.47-4.47L389.15,21c-.31-.94-.61-1.89-.92-2.84s-.58-1.8-.88-2.7-.58-1.79-.88-2.69l-.93-2.85c-.29-.9-.58-1.8-.88-2.7l-.93-2.86-.88-2.69c-.18-.53-.34-1.07-.52-1.6l.06,0,21.08,17.36Z"/><path class="cls-1" d="M404,18.14c.33.72.65,1.4,1,2.08l1.62,3.55c.28.61.57,1.22.86,1.83.58,1.27,1.16,2.54,1.75,3.81l2,4.33c.05.11.09.23.15.4l-18.19-2.36Z"/><path class="cls-1" d="M410.7,35,391.1,47.12l-.06,0,.06-.38.12-1.15c.06-.46.12-.91.17-1.37s.08-.81.13-1.21.11-.87.16-1.31.09-.76.13-1.15.12-.91.17-1.37l.12-1.23c0-.41.11-.84.16-1.26s.09-.78.13-1.17.12-.92.17-1.37.1-1,.14-1.46l18,2.32Z"/><path class="cls-1" d="M412,33.38l-4.26-9.23,9.11-4.47.07,0-4.83,13.69Z"/><path class="cls-1" d="M417.67,20.53l2.16,10.23-.07,0-.44-.35L417.72,29c-.68-.61-1.36-1.22-2.06-1.83-.28-.24-.29-.26-.16-.63.58-1.68,1.17-3.37,1.76-5.05.11-.31.24-.61.35-.93Z"/></g></g></g></g></svg>