<svg xmlns="http://www.w3.org/2000/svg" viewBox="0 0 323.61 161.87"><defs><style>.cls-1{fill:#ee8a1d;}.cls-2{fill:#fff;}</style></defs><g id="Layer_2" data-name="Layer 2"><g id="Designs"><path class="cls-1" d="M190.07,110.58h9.59v50.67h-9.59Z"/><path class="cls-1" d="M221.23,122.7a15,15,0,0,1,12.53,6v-5.41h9.66v37.94h-9.66V155.7a15,15,0,0,1-12.6,6.17c-9.58,0-17.25-7.88-17.25-19.72S211.58,122.7,221.23,122.7Zm2.47,8.42c-5.14,0-10,3.84-10,11s4.86,11.3,10,11.3,10.06-4,10.06-11.17S229,131.12,223.7,131.12Z"/><path class="cls-1" d="M272.18,122.7c9.72,0,17.32,7.6,17.32,19.45s-7.6,19.72-17.32,19.72a14.93,14.93,0,0,1-12.53-6v5.41h-9.59V110.58h9.59v18.28C262,125.37,266.43,122.7,272.18,122.7Zm-2.53,8.42c-5.14,0-10,4-10,11.16s4.86,11.17,10,11.17,10.06-4.11,10.06-11.3S274.85,131.12,269.65,131.12Z"/><path class="cls-1" d="M308.27,161.87c-9.52,0-16.16-5.55-16.57-12.6h9.65c.34,2.87,3,5.07,6.85,5.07s5.82-1.72,5.82-3.91c0-6.78-21.43-2.46-21.43-16.36,0-6.3,5.61-11.37,15-11.37,9.18,0,14.73,5,15.27,12.53h-9.17c-.28-2.94-2.6-4.93-6.37-4.93-3.56,0-5.41,1.44-5.41,3.63,0,6.92,21,2.6,21.3,16.5C323.2,156.94,317.51,161.87,308.27,161.87Z"/><rect class="cls-2" x="2" y="30.62" width="18.64" height="73.75"/><ellipse class="cls-2" cx="11.45" cy="10.92" rx="11.45" ry="10.92"/><path class="cls-2" d="M294.19,29.55c-9.45,0-17.44,4-22.23,10.25V30.62H253.32v73.75H272V63.63c0-11.85,6.52-18.24,16.64-18.24,9.85,0,16.37,6.39,16.37,18.24v40.74h18.64V61.1C323.61,40.73,311.36,29.55,294.19,29.55Z"/><path class="cls-2" d="M208.73,29.42c-8.79,0-16.5,2.4-22.58,6.78A52.17,52.17,0,0,1,192.76,54a16.61,16.61,0,0,1,15.44-9.28c9.58,0,17.3,6.12,17.57,15.84H193.49c0,.92.07,1.85.07,2.78a54.09,54.09,0,0,1-.88,9.73h51.86a43.43,43.43,0,0,0,.53-7.19C245.07,43.93,230,29.42,208.73,29.42Z"/><path class="cls-2" d="M103.13,74.57H103A10.51,10.51,0,0,1,92.49,64.3,52.69,52.69,0,0,1,97.8,40.15c-5.23-6.94-13.43-10.6-23.25-10.6-9.45,0-17.44,4-22.23,10.25V30.62H33.68v73.75H52.32V63.63c0-11.85,6.52-18.24,16.64-18.24,9.85,0,16.37,6.39,16.37,18.24v40.74H104V74.52A7.89,7.89,0,0,1,103.13,74.57Z"/><path class="cls-2" d="M208.33,90.12c-7.83,0-14.35-4.33-16.78-12.19a52.23,52.23,0,0,1-8.91,17.73c6.54,6.34,15.61,9.9,26.09,9.9,18.24,0,30.48-10.78,34.48-24.36h-20.1C220.71,86.13,216.32,90.12,208.33,90.12Z"/><path class="cls-1" d="M162.92,83.8a4,4,0,0,1-3.27-6.27c5.85-8.44,6.2-19.53.87-27.62-6.63-10.06-18.59-10.61-19.94-10.63a4,4,0,0,1,.17-8c1.78,0,17.57.76,26.44,14.23a31.23,31.23,0,0,1,5.09,18.21,33.79,33.79,0,0,1-6.07,18.35A4,4,0,0,1,162.92,83.8Z"/><path class="cls-1" d="M147.76,159.07a4.73,4.73,0,0,1-3-1c-1.52-1.21-3.08-2.34-4.74-3.53a89.56,89.56,0,0,1-7.5-5.83,7.23,7.23,0,0,1-2.33-5,8.07,8.07,0,0,1,2.34-6.07,8.61,8.61,0,0,1,5.37-2.59l.15,0,7.43-1.38,5.35-1a1.43,1.43,0,0,0,1.15-1.24,1.42,1.42,0,0,0-.83-1.47c-2.79-1.25-5.63-2.58-8.21-3.86a109.6,109.6,0,0,1-10.46-5.79c-2.56-1.66-6.85-4.45-6.31-8.7.25-1.94,1.6-5.19,7.9-5.19H159a1.43,1.43,0,0,0,1.42-1.25l.82-6.7a8.88,8.88,0,0,1,3.28-5.88,37.75,37.75,0,0,0,2.77-55.85A34.46,34.46,0,0,0,143,26.59h-.51A34.45,34.45,0,0,0,118.2,37.28,37.27,37.27,0,0,0,107.7,64,4.75,4.75,0,0,1,103,68.87H103a4.77,4.77,0,0,1-4.76-4.67,46.71,46.71,0,0,1,13.17-33.54,43.88,43.88,0,0,1,31-13.58H143a43.93,43.93,0,0,1,31,12.81,47.26,47.26,0,0,1-2.88,69.54,1.39,1.39,0,0,0-.5.92l-.74,6a10.69,10.69,0,0,1-10.52,9.47H150a1.42,1.42,0,0,0-.61,2.71l.05,0A141,141,0,0,0,164,124.84c4.14,1.07,6.73,4.08,6.6,7.67-.1,2.83-2.2,6.51-7.78,7.53-5.22,1-10.5,1.94-15.6,2.9l-2.27.42a1.42,1.42,0,0,0-.57,2.55l1.18.85c1.7,1.23,3.43,2.48,5.14,3.84a4.76,4.76,0,0,1-3,8.47Z"/></g></g></svg>